REM DIRINDEX 1\2,1\3,1\4,1\5
REM DIRNAME "folder01","folder02","folder03","folder04","folder05"
TITLE ""
FILE "1Q_t_1888-1900.mp3" MP3
  TRACK 01 AUDIO
    TITLE "3:cjc172_6665"
    INDEX 01 00:00:00
  TRACK 02 AUDIO
    TITLE "0:"
    INDEX 01 00:01:16
  TRACK 03 AUDIO
    TITLE "4:cjc172_6666"
    INDEX 01 00:01:25
  TRACK 04 AUDIO
    TITLE "0:"
    INDEX 01 00:02:35
  TRACK 05 AUDIO
    TITLE "5:cjc172_6667"
    INDEX 01 00:02:43
  TRACK 06 AUDIO
    TITLE "0:"
    INDEX 01 00:07:14
  TRACK 07 AUDIO
    TITLE "3:cjc172_6668"
    INDEX 01 00:07:63
  TRACK 08 AUDIO
    TITLE "0:"
    INDEX 01 00:08:73
  TRACK 09 AUDIO
    TITLE "4:cjc172_6669"
    INDEX 01 00:09:07
  TRACK 10 AUDIO
    TITLE "0:"
    INDEX 01 00:10:44
  TRACK 11 AUDIO
    TITLE "5:cjc172_6670"
    INDEX 01 00:10:52
  TRACK 12 AUDIO
    TITLE "0:"
    INDEX 01 00:15:47
  TRACK 13 AUDIO
    TITLE "3:cjc172_6671"
    INDEX 01 00:16:19
  TRACK 14 AUDIO
    TITLE "0:"
    INDEX 01 00:17:46
  TRACK 15 AUDIO
    TITLE "4:cjc172_6672"
    INDEX 01 00:17:60
  TRACK 16 AUDIO
    TITLE "0:"
    INDEX 01 00:20:38
  TRACK 17 AUDIO
    TITLE "5:cjc172_6673"
    INDEX 01 00:20:46
  TRACK 18 AUDIO
    TITLE "0:"
    INDEX 01 00:26:04
  TRACK 19 AUDIO
    TITLE "3:cjc172_6674"
    INDEX 01 00:26:53
  TRACK 20 AUDIO
    TITLE "0:"
    INDEX 01 00:27:56
  TRACK 21 AUDIO
    TITLE "4:cjc172_6675"
    INDEX 01 00:27:66
  TRACK 22 AUDIO
    TITLE "0:"
    INDEX 01 00:29:43
  TRACK 23 AUDIO
    TITLE "5:cjc172_6676"
    INDEX 01 00:29:53
  TRACK 24 AUDIO
    TITLE "0:"
    INDEX 01 00:35:09
  TRACK 25 AUDIO
    TITLE "3:cjc172_6677"
    INDEX 01 00:35:56
  TRACK 26 AUDIO
    TITLE "0:"
    INDEX 01 00:36:69
  TRACK 27 AUDIO
    TITLE "4:cjc172_6678"
    INDEX 01 00:37:08
  TRACK 28 AUDIO
    TITLE "0:"
    INDEX 01 00:39:48
  TRACK 29 AUDIO
    TITLE "5:cjc172_6679"
    INDEX 01 00:39:57
  TRACK 30 AUDIO
    TITLE "0:"
    INDEX 01 00:45:40
  TRACK 31 AUDIO
    TITLE "3:cjc172_6680"
    INDEX 01 00:46:12
  TRACK 32 AUDIO
    TITLE "0:"
    INDEX 01 00:47:22
  TRACK 33 AUDIO
    TITLE "4:cjc172_6681"
    INDEX 01 00:47:33
  TRACK 34 AUDIO
    TITLE "0:"
    INDEX 01 00:49:34
  TRACK 35 AUDIO
    TITLE "5:cjc172_6682"
    INDEX 01 00:49:44
  TRACK 36 AUDIO
    TITLE "0:"
    INDEX 01 00:55:15
  TRACK 37 AUDIO
    TITLE "3:cjc172_6683"
    INDEX 01 00:55:62
  TRACK 38 AUDIO
    TITLE "0:"
    INDEX 01 00:57:06
  TRACK 39 AUDIO
    TITLE "4:cjc172_6684"
    INDEX 01 00:57:18
  TRACK 40 AUDIO
    TITLE "0:"
    INDEX 01 01:01:14
  TRACK 41 AUDIO
    TITLE "5:cjc172_6685"
    INDEX 01 01:01:24
  TRACK 42 AUDIO
    TITLE "0:"
    INDEX 01 01:06:01
  TRACK 43 AUDIO
    TITLE "3:cjc172_6686"
    INDEX 01 01:06:46
  TRACK 44 AUDIO
    TITLE "0:"
    INDEX 01 01:07:60
  TRACK 45 AUDIO
    TITLE "4:cjc172_6687"
    INDEX 01 01:07:67
  TRACK 46 AUDIO
    TITLE "0:"
    INDEX 01 01:12:27
  TRACK 47 AUDIO
    TITLE "5:cjc172_6688"
    INDEX 01 01:12:37
  TRACK 48 AUDIO
    TITLE "0:"
    INDEX 01 01:17:42
  TRACK 49 AUDIO
    TITLE "2:cjc172_6689"
    INDEX 01 01:18:18
  TRACK 50 AUDIO
    TITLE "0:"
    INDEX 01 01:19:27
  TRACK 51 AUDIO
    TITLE "3:cjc172_6690"
    INDEX 01 01:19:71
  TRACK 52 AUDIO
    TITLE "0:"
    INDEX 01 01:21:13
  TRACK 53 AUDIO
    TITLE "4:cjc172_6691"
    INDEX 01 01:21:26
  TRACK 54 AUDIO
    TITLE "0:"
    INDEX 01 01:23:35
  TRACK 55 AUDIO
    TITLE "5:cjc172_6692"
    INDEX 01 01:23:43
  TRACK 56 AUDIO
    TITLE "0:"
    INDEX 01 01:28:73
  TRACK 57 AUDIO
    TITLE "3:cjc172_6693"
    INDEX 01 01:29:45
  TRACK 58 AUDIO
    TITLE "0:"
    INDEX 01 01:30:59
  TRACK 59 AUDIO
    TITLE "4:cjc172_6694"
    INDEX 01 01:30:70
  TRACK 60 AUDIO
    TITLE "0:"
    INDEX 01 01:33:47
  TRACK 61 AUDIO
    TITLE "5:cjc172_6695"
    INDEX 01 01:33:57
  TRACK 62 AUDIO
    TITLE "0:"
    INDEX 01 01:38:72
  TRACK 63 AUDIO
    TITLE "3:cjc172_6696"
    INDEX 01 01:39:46
  TRACK 64 AUDIO
    TITLE "0:"
    INDEX 01 01:41:00
  TRACK 65 AUDIO
    TITLE "4:cjc172_6697"
    INDEX 01 01:41:11
  TRACK 66 AUDIO
    TITLE "0:"
    INDEX 01 01:44:12
  TRACK 67 AUDIO
    TITLE "5:cjc172_6698"
    INDEX 01 01:44:22
  TRACK 68 AUDIO
    TITLE "0:"
    INDEX 01 01:50:24
  TRACK 69 AUDIO
    TITLE "3:cjc172_6699"
    INDEX 01 01:50:73
  TRACK 70 AUDIO
    TITLE "0:"
    INDEX 01 01:52:23
  TRACK 71 AUDIO
    TITLE "4:cjc172_6700"
    INDEX 01 01:52:35
  TRACK 72 AUDIO
    TITLE "0:"
    INDEX 01 01:53:52
  TRACK 73 AUDIO
    TITLE "5:cjc172_6701"
    INDEX 01 01:53:62
  TRACK 74 AUDIO
    TITLE "0:"
    INDEX 01 01:59:64
  TRACK 75 AUDIO
    TITLE "3:cjc172_6702"
    INDEX 01 02:00:36
  TRACK 76 AUDIO
    TITLE "0:"
    INDEX 01 02:01:57
  TRACK 77 AUDIO
    TITLE "4:cjc172_6703"
    INDEX 01 02:01:69
  TRACK 78 AUDIO
    TITLE "0:"
    INDEX 01 02:04:07
  TRACK 79 AUDIO
    TITLE "5:cjc172_6704"
    INDEX 01 02:04:16
  TRACK 80 AUDIO
    TITLE "0:"
    INDEX 01 02:09:49
